# xmcd CD database file
#
# Track frame offsets:
#	150
#	13385
#	30598
#	42825
#	72153
#	86070
#	100565
#	120295
#	134583
#	150113
#	172595
#
# Disc length: 2418 seconds
#
# Revision: 0
# Processed by: cddbd v1.5.2PL0 Copyright (c) Steve Scherf et al.
# Submitted via: CDex 1.51
#
DISCID=7809700b
DTITLE=Dardanelles - That's My Style
DYEAR=1989
DGENRE=Jazz
TTITLE0=Little Jazz Bird
TTITLE1=Bouquet Of Blues
TTITLE2=I'm Glad There Is You
TTITLE3=Midnight Sun
TTITLE4=Where Or When
TTITLE5=That's My Style
TTITLE6=My One And Only Love  
TTITLE7=I Didn't Know What Time It Was
TTITLE8=Waltz For Debbie
TTITLE9=The Way We Were
TTITLE10=Little Jazz Bird
EXTD=YEAR: 1989
EXTT0=
EXTT1=
EXTT2=
EXTT3=
EXTT4=
EXTT5=
EXTT6=
EXTT7=
EXTT8=
EXTT9=
EXTT10=
PLAYORDER=
